{"title":"Google te searcha","uid":7342889,"size":33326259,"categoryP":"video","categoryS":"music_videos","magnet":"?xt=urn:btih:74b37ed98bd3284bc376380943d8c057e8f14146&amp;dn=Google+te+searcha&amp;tr=udp%3A%2F%2Ftracker.openbittorrent.com%3A80&amp;tr=udp%3A%2F%2Fopen.demonii.com%3A1337&amp;tr=udp%3A%2F%2Ftracker.coppersurfer.tk%3A6969&amp;tr=udp%3A%2F%2Fexodus.desync.com%3A6969","seeders":1,"leechers":0,"uploader":"djsunny1986","files":2,"time":1339310355,"description":"Punjabi Song: Google te searcha maar maar ke\nsinger: Kamal Heer\n\n\n\nFormat                                   : Flash Video\nFile size                                : 31.6 MiB\nDuration                                 : 5mn 11s\nOverall bit rate                         : 851 Kbps\n\nFormat                                   : AVC\nFormat/Info                              : Advanced Video Codec\nFormat profile                           : &lt;a class=&quot;__cf_email__&quot; href=&quot;/cdn-cgi/l/email-protection&quot; data-cfemail=&quot;581539313618146b7668&quot;&gt;[email&amp;#160;protected]&lt;/a&gt;&lt;script cf-hash='f9e31' type=&quot;text/javascript&quot;&gt;\n/* &lt;![CDATA[ */!function(){try{var t=&quot;currentScript&quot;in document?document.currentScript:function(){for(var t=document.getElementsByTagName(&quot;script&quot;),e=t.length;e--;)if(t[e].getAttribute(&quot;cf-hash&quot;))return t[e]}();if(t&amp;&amp;t.previousSibling){var e,r,n,i,c=t.previousSibling,a=c.getAttribute(&quot;data-cfemail&quot;);if(a){for(e=&quot;&quot;,r=parseInt(a.substr(0,2),16),n=2;a.length-n;n+=2)i=parseInt(a.substr(n,2),16)^r,e+=String.fromCharCode(i);e=document.createTextNode(e),c.parentNode.replaceChild(e,c)}}}catch(u){}}();/* ]]&gt; */&lt;/script&gt;\nFormat settings, CABAC                   : Yes\nFormat settings, ReFrames                : 3 frames\nFormat settings, GOP                     : M=1, N=30\nCodec ID                                 : 7\nDuration                                 : 5mn 11s\nBit rate                                 : 714 Kbps\nWidth                                    : 640 pixels\nHeight                                   : 360 pixels\nDisplay aspect ratio                     : 16:9\nFrame rate mode                          : Constant\nFrame rate                               : 29.970 fps\nColor space                              : YUV\nChroma subsampling                       : 4:2:0\nBit depth                                : 8 bits\nScan type                                : Progressive\nBits/(Pixel*Frame)                       : 0.103\nStream size                              : 26.5 MiB (84%)\n\nAudio\nFormat                                   : AAC\nFormat/Info                              : Advanced Audio Codec\nFormat profile                           : LC\nCodec ID                                 : 10\nDuration                                 : 5mn 11s\nBit rate                                 : 129 Kbps\nChannel(s)                               : 2 channels\nChannel positions                        : Front: L R\nSampling rate                            : 44.1 KHz\nCompression mode                         : Lossy\nStream size                              : 4.78 MiB (15%)\n\n\n\n\n\n &lt;a href=&quot;\nhttp://i.minus.com/ibhbpSzUymnlsS.jpg&quot; rel=&quot;nofollow&quot; target=&quot;_NEW&quot;&gt;\nhttp://i.minus.com/ibhbpSzUymnlsS.jpg&lt;/a&gt;","torrent":{"xt":"urn:btih:74b37ed98bd3284bc376380943d8c057e8f14146","amp;dn":"Google+te+searcha","amp;tr":["udp%3A%2F%2Ftracker.openbittorrent.com%3A80","udp%3A%2F%2Fopen.demonii.com%3A1337","udp%3A%2F%2Ftracker.coppersurfer.tk%3A6969","udp%3A%2F%2Fexodus.desync.com%3A6969"],"infoHash":"74b37ed98bd3284bc376380943d8c057e8f14146","infoHashBuffer":{"type":"Buffer","data":[116,179,126,217,139,211,40,75,195,118,56,9,67,216,192,87,232,241,65,70]},"announce":[],"urlList":[]}}